<svg width="576" height="576" viewBox="0 0 576 576" fill="none" xmlns="http://www.w3.org/2000/svg">
    <style>
        @keyframes glow {
            0%, 100% {
                stroke-opacity: 0.5;
                stroke-width: 1px;
            }
            50% {
                stroke-opacity: 1;
                stroke-width: 3px;
            }
        }
        circle {
            animation: glow 4.5s infinite;
        }
    </style>
<mask id="mask0_4517_461" style="mask-type:alpha" maskUnits="userSpaceOnUse" x="103" y="105" width="370" height="369">
<path d="M472.131 289.11C472.131 390.792 389.702 473.221 288.021 473.221C186.339 473.221 103.91 390.792 103.91 289.11C103.91 187.429 186.339 105 288.021 105C389.702 105 472.131 187.429 472.131 289.11Z" fill="url(#paint0_linear_4517_461)"/>
</mask>
<g mask="url(#mask0_4517_461)">
<g filter="url(#filter0_i_4517_461)">
<path d="M472.131 289.11C472.131 390.792 389.702 473.221 288.021 473.221C186.339 473.221 103.91 390.792 103.91 289.11C103.91 187.429 186.339 105 288.021 105C389.702 105 472.131 187.429 472.131 289.11Z" fill="url(#paint1_linear_4517_461)"/>
</g>
<g filter="url(#filter1_f_4517_461)">
<path fill-rule="evenodd" clip-rule="evenodd" d="M478.915 214.56C467.319 287.62 429.674 326.749 347.878 326.749C123.18 341.931 111.334 289.339 113.442 206.734C69.3891 247.041 42.2363 302.197 42.2363 363.027C42.2363 486.497 154.104 586.589 292.101 586.589C430.097 586.589 541.965 486.497 541.965 363.027C541.965 306.045 518.139 254.043 478.915 214.56Z" fill="#9764BF"/>
</g>
</g>
<path d="M296.83 187.612H297.927C297.927 188.885 296.912 188.71 296.183 188.808C286.428 190.331 276.938 193.227 267.995 197.41C260.396 201.01 253.285 205.561 246.835 210.955C235.385 220.413 226.607 231.994 220.238 245.346C218.159 249.691 216.052 254.08 215.427 258.962C213.852 263.54 212.537 268.203 211.488 272.93C208.79 285.972 209.583 299.495 213.786 312.132C214.335 313.778 215.004 315.385 215.383 317.069C215.756 321.732 217.939 325.803 219.859 329.906C231.309 354.374 249.715 371.55 274.721 381.622C281.367 384.221 288.276 386.09 295.327 387.196C296.501 387.388 298.174 387.048 298.41 388.995C297.853 389.481 297.13 389.734 296.391 389.703C285.358 390.186 274.37 390.07 263.617 387.059C259.357 386.141 255.185 384.856 251.147 383.219C250.395 382.906 249.6 382.67 249.122 381.913C248.025 380.558 246.281 380.388 244.821 379.719C233.13 374.117 222.641 366.772 213.88 357.226C202.573 344.921 194.415 330.751 190.141 314.491C190.051 314.232 189.941 313.981 189.812 313.739C189.032 313.095 188.513 312.188 188.353 311.188C185.704 299.816 185.038 288.072 186.383 276.473C186.463 275.46 186.917 274.512 187.656 273.813C190.399 254.48 198.079 237.255 210.813 222.536C224.155 207.087 240.641 196.203 260.545 190.838C266.343 189.275 272.159 187.92 278.177 187.629C279.197 186.96 280.465 187.804 281.469 187.08H294.087C294.904 187.755 296.013 186.971 296.83 187.612Z" fill="#E2E2E2"/>
<path d="M281.46 187.071C280.489 188.059 279.265 187.455 278.168 187.62C278.168 187.439 278.168 187.263 278.168 187.071H281.46Z" fill="#F1F1F1"/>
<path d="M296.827 187.605C295.894 187.49 294.847 187.978 294.084 187.056H296.827C296.827 187.248 296.827 187.424 296.827 187.605Z" fill="#F0F0F0"/>
<path d="M187.635 273.806C185.528 287.268 186.538 300.561 189.829 313.732C186.088 313.732 182.346 313.831 178.61 313.771C174.644 313.705 172.334 311.395 172.312 307.423C172.268 298.302 172.268 289.179 172.312 280.054C172.312 276.039 174.611 273.8 178.616 273.756C181.6 273.702 184.612 273.767 187.635 273.806Z" fill="white"/>
<path d="M214.941 258.298C214.343 256.372 215.566 254.82 216.148 253.207C220.322 241.823 226.516 231.286 234.433 222.102C243.078 211.967 253.676 203.678 265.594 197.728C275.388 192.673 285.999 189.393 296.937 188.04C297.27 187.93 297.582 187.763 297.858 187.546C307.734 188.471 317.411 190.895 326.556 194.733C340.465 200.565 352.896 209.428 362.945 220.674C372.994 231.92 380.407 245.267 384.644 259.741C385.718 263.586 386.581 267.486 387.228 271.426C387.458 272.693 387.743 274.185 388.994 274.147C391.962 274.421 391.512 272.452 391.512 271.426C391.512 264.667 391.512 258.161 391.512 251.38C391.512 250.415 391.375 248.665 392.182 247.814C393.048 248.539 391.957 249.603 391.962 250.596C392.028 257.482 392.028 264.371 391.962 271.261C391.978 271.991 391.824 272.714 391.512 273.373C389.076 274.471 388.824 276.215 388.994 278.826C389.647 289.145 389.543 299.47 387.195 309.63C386.866 311.045 386.706 312.537 385.653 313.678C383.151 320.596 381.039 327.662 377.567 334.196C371.328 345.991 362.899 356.49 352.731 365.131C345.454 371.349 337.325 376.496 328.592 380.415C327.912 380.722 326.271 380.579 326.946 382.258C318.678 385.1 310.345 387.7 301.638 388.841C300.541 388.978 299.444 389.253 298.522 388.397C286.184 386.564 274.383 383.092 263.362 377.129C251.148 370.538 240.396 361.542 231.756 350.681C224.421 341.525 219.231 331.283 215.16 320.393C214.848 319.554 214.003 318.616 214.859 317.584C216.022 318.04 216.318 319.186 216.757 320.146C220.529 328.498 225.754 336.114 232.189 342.639C238.346 348.924 245.549 354.092 253.476 357.911C256.97 359.557 260.059 357.955 261.101 354.258C261.37 353.287 261.546 352.294 261.776 351.312C262.418 347.154 263.455 343.083 264.371 338.98C265.364 334.591 267.58 332.775 272.09 332.753C281.965 332.698 291.84 332.698 301.715 332.753C306.444 332.786 308.787 334.695 309.813 339.303C310.861 344.032 311.93 348.755 312.923 353.495C314.021 358.734 316.956 360.194 321.701 357.741C346.389 345.02 361.059 324.974 364.597 297.396C367.516 274.63 361.103 254.37 346.032 236.969C333.008 221.926 316.407 213.582 296.833 210.828C276.062 208.447 257.332 213.632 240.66 226.189C230.397 233.938 222.21 244.106 216.828 255.785C216.373 256.724 216.225 257.947 214.941 258.298Z" fill="#F3F3F3"/>
<path d="M385.693 313.788C386.242 308.906 387.63 304.166 388.085 299.25C388.837 291.892 388.826 284.476 388.052 277.12C387.668 273.779 387.586 273.79 391.048 273.724C392.216 272.803 393.61 272.83 394.959 272.901C397.198 273.022 398.004 272.018 397.988 269.829C397.933 263.751 397.933 257.671 397.988 251.589C397.988 250.267 397.741 248.846 398.953 247.781C399.656 248.665 399.354 249.712 399.359 250.683C399.387 257.815 399.398 264.914 399.359 272.024C399.359 273.291 399.546 274.185 400.747 274.953C402.58 276.127 403.139 278.086 403.145 280.192C403.145 289.222 403.194 298.252 403.145 307.282C403.112 311.517 400.725 313.728 396.397 313.772C392.825 313.81 389.27 313.788 385.693 313.788Z" fill="white"/>
<path d="M398.978 247.779C398.934 255.497 398.808 263.216 398.912 270.929C398.939 273.244 398.21 274.007 395.977 273.776C394.358 273.612 392.685 273.727 391.072 273.722L391.116 247.938C391.923 245.996 393.278 244.685 395.467 244.866C397.178 245.025 398.605 245.831 398.978 247.779Z" fill="white"/>
<path d="M255.153 319.888C249.985 322.439 244.636 321.825 239.243 320.804C231.771 317.76 226.378 312.724 223.986 304.84C221.32 296.063 224.469 286.051 231.667 280.263C232.005 279.958 232.326 279.634 232.627 279.292C236.089 277.285 239.649 275.578 243.692 275.079C247.736 274.58 251.609 274.98 255.241 276.939C254.692 278.036 253.54 278.272 252.618 278.826C237.542 287.933 237.707 309.169 252.931 317.957C253.803 318.445 254.835 318.753 255.153 319.888Z" fill="#D69AE3"/>
<path d="M339.62 277.002C347.85 280.403 352.524 286.739 353.698 295.336C354.85 303.762 351.876 310.927 345.287 316.429C343.508 317.994 341.423 319.173 339.165 319.891C334.957 319.562 332.225 316.758 329.839 313.856C320.21 302.171 323.014 285.796 335.873 277.797C337.003 277.062 338.156 276.278 339.62 277.002Z" fill="#F2B6FF"/>
<path d="M255.156 319.891C247.667 316.561 242.762 311.009 241.204 302.912C239.12 292.083 244.496 280.837 255.26 276.964C262.803 279.767 267.192 285.401 269.129 293.01C271.949 304.119 265.733 315.897 255.156 319.891Z" fill="#F2B6FF"/>
<path d="M339.614 277.002C333.091 279.081 328.982 283.678 326.475 289.834C324.217 295.505 324.282 301.838 326.656 307.462C329.029 313.087 333.52 317.551 339.159 319.891C331.171 324.016 318.904 321.131 312.749 313.39C306.714 305.754 305.304 297.223 309.583 288.336C313.862 279.449 321.395 274.983 331.286 274.917C334.156 274.906 337.085 275.356 339.614 277.002Z" fill="#D69AE3"/>
<circle cx="288" cy="288" r="210.5" stroke="url(#paint2_linear_4517_461)"/>
    <circle opacity="0.5" cx="288" cy="288" r="234.5" stroke="url(#paint3_linear_4517_461)"/>
    <circle cx="288" cy="288" r="261.5" stroke="url(#paint4_linear_4517_461)"/>
    <circle opacity="0.2" cx="288" cy="288" r="287" stroke="url(#paint5_linear_4517_461)" stroke-opacity="0.5" stroke-width="2"/>
   
<defs>
<filter id="filter0_i_4517_461" x="103.91" y="97" width="368.221" height="376.221" filterUnits="userSpaceOnUse" color-interpolation-filters="sRGB">
<feFlood flood-opacity="0" result="BackgroundImageFix"/>
<feBlend mode="normal" in="SourceGraphic" in2="BackgroundImageFix" result="shape"/>
<feColorMatrix in="SourceAlpha" type="matrix" values="0 0 0 0 0 0 0 0 0 0 0 0 0 0 0 0 0 0 127 0" result="hardAlpha"/>
<feOffset dy="-8"/>
<feGaussianBlur stdDeviation="9"/>
<feComposite in2="hardAlpha" operator="arithmetic" k2="-1" k3="1"/>
<feColorMatrix type="matrix" values="0 0 0 0 0 0 0 0 0 0 0 0 0 0 0 0 0 0 0.46 0"/>
<feBlend mode="normal" in2="shape" result="effect1_innerShadow_4517_461"/>
</filter>
<filter id="filter1_f_4517_461" x="-100.764" y="63.7338" width="785.729" height="665.856" filterUnits="userSpaceOnUse" color-interpolation-filters="sRGB">
<feFlood flood-opacity="0" result="BackgroundImageFix"/>
<feBlend mode="normal" in="SourceGraphic" in2="BackgroundImageFix" result="shape"/>
<feGaussianBlur stdDeviation="71.5" result="effect1_foregroundBlur_4517_461"/>
</filter>
<linearGradient id="paint0_linear_4517_461" x1="266.707" y1="172.568" x2="288.021" y2="531.266" gradientUnits="userSpaceOnUse">
<stop stop-color="white"/>
<stop offset="1" stop-color="white"/>
</linearGradient>
<linearGradient id="paint1_linear_4517_461" x1="266.707" y1="172.568" x2="288.021" y2="531.266" gradientUnits="userSpaceOnUse">
<stop stop-color="#232230"/>
<stop offset="1" stop-color="#2F2E40"/>
</linearGradient>
<linearGradient id="paint2_linear_4517_461" x1="288" y1="77" x2="288" y2="499" gradientUnits="userSpaceOnUse">
<stop stop-color="#885CAD"/>
<stop offset="1" stop-color="#885CAD" stop-opacity="0"/>
</linearGradient>
<linearGradient id="paint3_linear_4517_461" x1="288" y1="53" x2="288" y2="523" gradientUnits="userSpaceOnUse">
<stop stop-color="#885CAD"/>
<stop offset="1" stop-color="#885CAD" stop-opacity="0"/>
</linearGradient>
<linearGradient id="paint4_linear_4517_461" x1="288" y1="26" x2="288" y2="550" gradientUnits="userSpaceOnUse">
<stop stop-color="#885CAD"/>
<stop offset="1" stop-color="#885CAD" stop-opacity="0"/>
</linearGradient>
<linearGradient id="paint5_linear_4517_461" x1="288" y1="0" x2="288" y2="576" gradientUnits="userSpaceOnUse">
<stop stop-color="#885CAD"/>
<stop offset="1" stop-color="#885CAD" stop-opacity="0"/>
</linearGradient>
</defs>
</svg>
